<svg version="1.2" xmlns="http://www.w3.org/2000/svg" viewBox="0 0 512 512" width="512" height="512">
	<title>logo-twitter-svg</title>
	<style>
		.s0 { fill: #ffffff } 
	</style>
	<path id="Layer" class="s0" d="m496 109.5q-6.7 2.9-13.7 5.4-6.9 2.4-14 4.3-7.1 1.9-14.3 3.3-7.2 1.4-14.5 2.3c5-3 9.8-6.4 14.3-10.2 4.4-3.9 8.5-8.1 12.2-12.6 3.7-4.6 7-9.5 9.8-14.7 2.8-5.1 5.1-10.5 7-16.1q-7.3 4.2-14.9 7.8-7.5 3.7-15.4 6.6-7.9 3-15.9 5.2-8.1 2.3-16.4 3.9c-4.6-4.8-9.7-9.2-15.2-13-5.5-3.9-11.4-7.1-17.6-9.7-6.1-2.7-12.6-4.7-19.1-6-6.6-1.3-13.3-2-20-2-54.4 0-98.4 43.4-98.4 96.9q-0.1 2.8 0.1 5.6 0.1 2.8 0.5 5.5 0.3 2.8 0.8 5.5 0.4 2.8 1.1 5.5c-19.5-0.9-38.8-3.8-57.6-8.8-18.9-4.9-37.2-11.7-54.6-20.4-17.4-8.7-33.9-19.2-49.2-31.3-15.2-12.1-29.2-25.8-41.6-40.8q-3.3 5.5-5.8 11.4-2.5 5.9-4.2 12.1-1.7 6.1-2.5 12.5-0.9 6.3-0.9 12.7c0 33.6 17.5 63.3 44 80.7q-5.9-0.1-11.7-1-5.8-0.8-11.4-2.3-5.7-1.6-11.1-3.8-5.4-2.2-10.6-5v1.2c0 47 34 86.1 79 95q-3.1 0.8-6.4 1.5-3.2 0.6-6.4 1-3.3 0.5-6.6 0.7-3.2 0.2-6.5 0.2-2.3 0-4.7-0.1-2.3-0.1-4.6-0.3-2.3-0.3-4.6-0.6-2.3-0.3-4.6-0.8c12.5 38.5 48.9 66.5 92 67.3-8.7 6.7-17.9 12.7-27.6 17.8-9.6 5.2-19.7 9.6-30.1 13.1-10.4 3.5-21 6.2-31.9 8-10.8 1.7-21.7 2.6-32.7 2.6q-2.9 0-5.9-0.1-2.9-0.1-5.9-0.3-2.9-0.1-5.8-0.4-3-0.3-5.9-0.6c11.2 7.1 22.9 13.5 34.9 18.9 12.1 5.5 24.6 10.1 37.3 13.8 12.8 3.7 25.7 6.5 38.9 8.4 13.1 1.8 26.4 2.7 39.6 2.7 181.4 0 280.5-147.7 280.5-275.8 0-4.2-0.1-8.4-0.3-12.5q7.2-5.1 13.9-10.9 6.7-5.7 12.9-12 6.2-6.3 11.7-13.2 5.6-6.8 10.6-14.1z"/>
</svg>