<svg version="1.2" baseProfile="tiny-ps" xmlns="http://www.w3.org/2000/svg" viewBox="0 0 512 512" width="512" height="512">
	<title>logo-linkedin-svg</title>
	<style>
		tspan { white-space:pre }
		.s0 { fill: #ffffff } 
	</style>
	<path id="Layer" fill-rule="evenodd" class="s0" d="m480 66.89v374.72c0 20.18-15.4 38.39-35.94 38.39h-373.78c-20.43 0-38.28-18.09-38.28-38.39v-374.72c0-20.19 17.85-34.89 38.28-34.89h373.89c20.43 0 35.95 14.7 35.83 34.89zm-309.13 138.99h-64.18v199.55h64.18v-199.55zm4.79-64.77c-0.46-19.6-13.31-34.42-34.31-34.42c-21 0-34.65 14.93-34.65 34.42c0 19.14 13.3 34.43 33.84 34.43h0.46c21.35 0 34.65-15.29 34.66-34.43zm229.78 147.74c0-59.87-31.87-87.64-74-87.64c-33.95 0-48.54 19.14-57.88 32.44v-27.77h-64.18v199.55h64.18v-113.66c0-5.84 0.47-11.56 2.22-15.76c4.67-11.69 15.17-23.69 32.91-23.69c23.22 0 32.56 17.86 32.56 44v109.11h64.18l0.01-116.58z" />
</svg>