<svg version="1.2" baseProfile="tiny-ps" xmlns="http://www.w3.org/2000/svg" viewBox="0 0 512 512" width="512" height="512">
	<title>logo-github-svg</title>
	<style>
		tspan { white-space:pre }
		.s0 { fill: #ffffff } 
	</style>
	<path id="Layer" class="s0" d="m480 261.7c0 101.4-64.1 187.5-153.2 217.9c-0.33 0.07-0.66 0.13-0.99 0.18c-0.33 0.05-0.66 0.09-1 0.13c-0.33 0.03-0.67 0.06-1 0.07c-0.34 0.02-0.67 0.02-1.01 0.02c-8.3 0-11.4-6.1-11.4-11.5c0-7.5 0.3-32.3 0.3-63c0-21.4-7.2-35.4-15.2-42.5c49.9-5.7 102.3-25.1 102.3-113.3c0-25-8.7-45.5-23-61.6c2.3-5.8 10-29.2-2.2-60.8c-0.41-0.1-0.82-0.18-1.23-0.25c-0.41-0.07-0.83-0.13-1.25-0.17c-0.42-0.04-0.84-0.07-1.26-0.08c-0.42-0.01-0.84-0.01-1.26 0c-8.1 0-26.4 3.1-56.6 24.1c-9.12-2.55-18.4-4.48-27.79-5.77c-9.38-1.29-18.84-1.93-28.31-1.93c-9.47 0-18.93 0.65-28.31 1.93c-9.38 1.29-18.67 3.21-27.79 5.77c-30.2-21-48.5-24.1-56.6-24.1c-0.42-0.01-0.84-0.02-1.26 0c-0.42 0.01-0.84 0.04-1.26 0.08c-0.42 0.04-0.83 0.1-1.25 0.17c-0.41 0.07-0.83 0.15-1.23 0.25c-12.2 31.6-4.5 55-2.2 60.8c-14.3 16-23 36.5-23 61.6c0 88 52.3 107.7 102 113.5c-6.4 5.8-12.2 15.9-14.2 30.7c-2 0.94-4.04 1.78-6.13 2.5c-2.08 0.73-4.21 1.34-6.36 1.85c-2.15 0.5-4.32 0.89-6.51 1.17c-2.19 0.28-4.39 0.44-6.6 0.48c-13.4 0-28.4-5.5-39.6-25.1c0 0-11.8-21.8-34.3-23.8h-0.1c-1.5 0-20.9 0.4-1.4 14.1c0 0 14.7 7.1 24.9 33.6c0 0 9.8 33.5 52.9 33.5c1.9-0.01 3.8-0.08 5.7-0.2c1.9-0.12 3.79-0.29 5.68-0.52c1.89-0.23 3.77-0.5 5.64-0.83c1.87-0.33 3.73-0.71 5.58-1.15c0.1 19.2 0.3 33.6 0.3 39.1c0 5.3-3.2 11.4-11.5 11.4c-0.32 0-0.64-0.01-0.96-0.02c-0.32-0.02-0.64-0.04-0.95-0.07c-0.32-0.03-0.63-0.08-0.95-0.13c-0.32-0.05-0.63-0.11-0.94-0.18c-89-30.4-153.2-116.4-153.2-217.9c0-126.8 100.3-229.7 224-229.7c123.7 0 224 102.9 224 229.7z" />
</svg>