<svg version="1.2" baseProfile="tiny-ps" xmlns="http://www.w3.org/2000/svg" viewBox="0 0 512 512" width="512" height="512">
	<title>logo-twitter-svg</title>
	<style>
		tspan { white-space:pre }
		.s0 { fill: #ffffff } 
	</style>
	<path id="Layer" class="s0" d="m496 109.5c-3.31 4.87-6.83 9.59-10.56 14.14c-3.73 4.56-7.65 8.94-11.77 13.15c-4.12 4.21-8.42 8.23-12.89 12.05c-4.47 3.82-9.12 7.45-13.91 10.86c0.2 4.1 0.31 8.3 0.31 12.5c0 128.1-99.08 275.8-280.44 275.8c-13.27 0.04-26.52-0.88-39.65-2.73c-13.14-1.85-26.12-4.64-38.86-8.34c-12.74-3.7-25.2-8.31-37.28-13.78c-12.08-5.48-23.76-11.81-34.94-18.95c1.95 0.23 3.9 0.43 5.86 0.61c1.96 0.17 3.91 0.32 5.87 0.44c1.96 0.12 3.92 0.21 5.88 0.26c1.96 0.06 3.92 0.09 5.89 0.09c10.97 0.03 21.92-0.85 32.74-2.62c10.82-1.77 21.48-4.43 31.87-7.96c10.39-3.52 20.46-7.9 30.13-13.08c9.67-5.18 18.89-11.15 27.58-17.84c-43.13-0.8-79.54-28.8-92.05-67.3c1.52 0.3 3.05 0.57 4.59 0.79c1.54 0.23 3.08 0.41 4.62 0.56c1.55 0.15 3.09 0.26 4.64 0.34c1.55 0.07 3.1 0.11 4.66 0.11c2.19 0 4.37-0.07 6.55-0.21c2.18-0.14 4.36-0.36 6.53-0.64c2.17-0.28 4.33-0.64 6.47-1.06c2.14-0.42 4.28-0.92 6.39-1.48c-45-8.9-79-48-79-95l0-1.2c3.42 1.89 6.95 3.56 10.57 5.03c3.62 1.46 7.32 2.71 11.09 3.72c3.77 1.02 7.6 1.81 11.46 2.37c3.86 0.56 7.76 0.89 11.66 0.98c-26.47-17.4-44-47.1-44-80.7c0.01-4.26 0.3-8.52 0.87-12.74c0.57-4.22 1.43-8.4 2.56-12.51c1.13-4.11 2.53-8.14 4.2-12.06c1.67-3.92 3.59-7.73 5.77-11.39c12.43 15 26.39 28.67 41.64 40.78c15.26 12.11 31.74 22.6 49.17 31.3c17.43 8.7 35.72 15.56 54.57 20.47c18.85 4.91 38.16 7.85 57.62 8.76c-0.43-1.81-0.81-3.63-1.13-5.46c-0.32-1.83-0.59-3.67-0.8-5.52c-0.21-1.85-0.37-3.7-0.47-5.55c-0.1-1.86-0.15-3.71-0.14-5.57c0-53.5 44.04-96.9 98.46-96.9c6.7-0.01 13.39 0.66 19.96 1.99c6.57 1.34 12.98 3.34 19.15 5.97c6.17 2.63 12.05 5.88 17.56 9.7c5.51 3.82 10.62 8.19 15.24 13.04c5.5-1.05 10.95-2.34 16.33-3.86c5.39-1.52 10.71-3.26 15.95-5.23c5.24-1.97 10.39-4.16 15.45-6.56c5.05-2.41 10-5.02 14.83-7.85c-1.84 5.58-4.18 10.98-6.99 16.14c-2.81 5.16-6.09 10.05-9.78 14.62c-3.69 4.57-7.79 8.79-12.25 12.62c-4.45 3.83-9.24 7.25-14.31 10.22c4.87-0.58 9.71-1.34 14.52-2.27c4.81-0.93 9.59-2.04 14.31-3.32c4.73-1.28 9.41-2.73 14.04-4.35c4.62-1.62 9.19-3.41 13.68-5.36v0z" />
</svg>