<svg version="1.2" xmlns="http://www.w3.org/2000/svg" viewBox="0 0 512 512" width="512" height="512">
	<title>mail-svg</title>
	<style>
		.s0 { fill: #ffffff } 
	</style>
	<path id="Layer" fill-rule="evenodd" class="s0" d="m445.4 84.3c6.8 2.8 13 6.9 18.2 12.1 5.2 5.2 9.3 11.4 12.1 18.2 2.8 6.8 4.3 14 4.3 21.4v240c0 7.4-1.5 14.6-4.3 21.4-2.8 6.8-6.9 13-12.1 18.2-5.2 5.2-11.4 9.3-18.2 12.1-6.8 2.8-14 4.3-21.4 4.3h-336c-7.4 0-14.6-1.5-21.4-4.3-6.8-2.8-13-6.9-18.2-12.1-5.2-5.2-9.3-11.4-12.1-18.2-2.8-6.8-4.3-14-4.3-21.4v-240c0-7.4 1.5-14.6 4.3-21.4 2.8-6.8 6.9-13 12.1-18.2 5.2-5.2 11.4-9.3 18.2-12.1 6.8-2.8 14-4.3 21.4-4.3h336c7.4 0 14.6 1.5 21.4 4.3zm-29.7 77.7c0.5-4.2-0.7-8.4-3.2-11.7-2.6-3.3-6.4-5.5-10.6-6-4.1-0.6-8.4 0.5-11.7 3.1l-134.2 104.3-134.2-104.3c-3.3-2.7-7.6-3.9-11.9-3.4-4.2 0.5-8.1 2.7-10.7 6-2.6 3.4-3.8 7.7-3.2 12 0.5 4.2 2.8 8 6.2 10.6l144 112c1.4 1.1 2.9 2 4.6 2.5 1.7 0.6 3.4 0.9 5.2 0.9 1.8 0 3.5-0.3 5.2-0.9 1.7-0.5 3.2-1.4 4.6-2.5l144-112c3.3-2.6 5.4-6.4 5.9-10.6z"/>
</svg>